<?xml version="1.0" encoding="UTF-8"?>
<svg width="1282px" height="1282px" viewBox="0 0 1282 1282" version="1.1" xmlns="http://www.w3.org/2000/svg" xmlns:xlink="http://www.w3.org/1999/xlink">
    <!-- Generator: Sketch 58 (84663) - https://sketch.com -->
    <title>Combined Shape</title>
    <desc>Created with Sketch.</desc>
    <g id="Leaderisland" stroke="none" stroke-width="1" fill="none" fill-rule="evenodd">
        <g id="Artboard" transform="translate(-79.000000, -7.000000)" fill="#FF0000">
            <path d="M1361,7 L1361,1289 L79,1289 L79,7 L1361,7 Z M415.699482,674.932642 L381.025907,674.932642 L381.025907,741.088083 C381.025907,743.409338 380.639037,745.319509 379.865285,746.818653 C379.091533,748.317797 377.592412,749.067358 375.367876,749.067358 C373.626934,749.067358 372.24871,748.462873 371.233161,747.253886 C370.217612,746.044899 369.51641,744.666674 369.129534,743.119171 L369.129534,743.119171 L339.533679,754.435233 C340.500868,758.110554 342.193425,761.544025 344.611399,764.735751 C347.029373,767.927477 349.906719,770.683926 353.243523,773.005181 C356.580328,775.326436 360.328131,777.164069 364.487047,778.518135 C368.645962,779.8722 373.046609,780.549223 377.689119,780.549223 C385.523355,780.549223 391.906711,779.291895 396.839378,776.777202 C401.772045,774.262509 405.640746,771.022472 408.445596,767.056995 C411.250446,763.091517 413.160617,758.69087 414.176166,753.854922 C415.191715,749.018974 415.699482,744.279816 415.699482,739.637306 L415.699482,739.637306 L415.699482,674.932642 Z M895.326425,674.932642 L860.797927,674.932642 L860.797927,737.316062 C860.797927,743.409357 861.765103,749.091511 863.699482,754.362694 C865.633861,759.633878 868.583745,764.20378 872.549223,768.072539 C876.5147,771.941297 881.471473,774.987899 887.419689,777.212435 C893.367905,779.436971 900.355746,780.549223 908.38342,780.549223 C916.411094,780.549223 923.447293,779.436971 929.492228,777.212435 C935.537163,774.987899 940.590653,771.941297 944.65285,768.072539 C948.715046,764.20378 951.785827,759.633878 953.865285,754.362694 C955.944743,749.091511 956.984456,743.409357 956.984456,737.316062 L956.984456,737.316062 L956.984456,674.932642 L922.601036,674.932642 L922.601036,733.544041 C922.601036,738.476709 921.416247,742.32123 919.046632,745.07772 C916.677018,747.834211 913.316084,749.212435 908.963731,749.212435 C904.611377,749.212435 901.250444,747.834211 898.880829,745.07772 C896.511214,742.32123 895.326425,738.476709 895.326425,733.544041 L895.326425,733.544041 L895.326425,674.932642 Z M812.341969,672.031088 C807.312583,672.031088 802.234913,672.659752 797.108808,673.917098 C791.982703,675.174445 787.364442,677.229692 783.253886,680.082902 C779.14333,682.936111 775.782396,686.587197 773.170984,691.036269 C770.559572,695.485342 769.253886,700.901522 769.253886,707.284974 C769.253886,711.830765 769.979267,715.723645 771.430052,718.963731 C772.880836,722.203816 774.839366,724.984444 777.305699,727.305699 C779.772033,729.626955 782.60102,731.585484 785.792746,733.181347 C788.984472,734.77721 792.321226,736.155435 795.803109,737.316062 L795.803109,737.316062 L804.725389,740.362694 C807.095003,741.233165 808.956815,742.031088 810.310881,742.756477 C811.664946,743.481869 812.607942,744.183071 813.139896,744.860104 C813.671851,745.537136 813.937824,746.359235 813.937824,747.326425 C813.937824,749.164085 813.139904,750.421413 811.544041,751.098446 C809.948179,751.775478 808.183084,752.11399 806.248705,752.11399 C801.99307,752.11399 797.858397,751.098456 793.84456,749.067358 C789.830723,747.036259 786.614865,744.715039 784.196891,742.103627 L784.196891,742.103627 L763.160622,765.025907 C765.772034,767.347162 768.721918,769.450768 772.010363,771.336788 C775.298807,773.222807 778.804817,774.867005 782.528497,776.26943 C786.252178,777.671855 790.120878,778.735748 794.134715,779.46114 C798.148552,780.186532 802.234867,780.549223 806.393782,780.549223 C811.616606,780.549223 816.742635,779.799662 821.772021,778.300518 C826.801407,776.801374 831.322951,774.528513 835.336788,771.481865 C839.350625,768.435218 842.590661,764.614876 845.056995,760.020725 C847.523328,755.426575 848.756477,750.034573 848.756477,743.84456 C848.756477,738.525017 847.644225,734.076011 845.419689,730.497409 C843.195153,726.918808 840.366166,723.896385 836.932642,721.430052 C833.499119,718.963718 829.751316,716.95683 825.689119,715.409326 C821.626923,713.861823 817.758222,712.507778 814.082902,711.34715 C811.935741,710.650774 810.145487,710.02404 808.712123,709.466943 L808.712123,709.466943 L806.321244,708.445596 C804.725381,707.671844 803.927461,706.511234 803.927461,704.963731 C803.927461,703.319508 804.701201,702.134719 806.248705,701.409326 C807.796208,700.683934 809.827276,700.321244 812.341969,700.321244 C815.0501,700.321244 818.096702,701.070804 821.481865,702.569948 C824.867029,704.069092 827.720196,706.269416 830.041451,709.170984 L830.041451,709.170984 L851.512953,687.264249 C846.19341,682.331582 840.027669,678.559599 833.015544,675.948187 C826.003419,673.336775 819.112296,672.031088 812.341969,672.031088 Z M486.787565,672.031088 C478.663172,672.031088 471.119206,673.288416 464.15544,675.803109 C457.191675,678.317802 451.17101,681.89635 446.093264,686.53886 C441.015519,691.18137 437.025921,696.815165 434.124352,703.440415 C431.222783,710.065664 429.772021,717.488733 429.772021,725.709845 C429.772021,733.930956 431.222783,741.426564 434.124352,748.196891 C437.025921,754.967219 441.015519,760.74609 446.093264,765.533679 C451.17101,770.321267 457.191675,774.020712 464.15544,776.632124 C471.119206,779.243536 478.663172,780.549223 486.787565,780.549223 C494.911958,780.549223 502.455924,779.243536 509.419689,776.632124 C516.383455,774.020712 522.428299,770.321267 527.554404,765.533679 C532.680509,760.74609 536.694286,754.967219 539.595855,748.196891 C542.497424,741.426564 543.948187,733.930956 543.948187,725.709845 C543.948187,717.488733 542.497424,710.065664 539.595855,703.440415 C536.694286,696.815165 532.680509,691.18137 527.554404,686.53886 C522.428299,681.89635 516.383455,678.317802 509.419689,675.803109 C502.455924,673.288416 494.911958,672.031088 486.787565,672.031088 Z M1127.74093,674.932642 L1089.44041,674.932642 L1089.44041,777.647668 L1130.64249,777.647668 C1138.28329,777.647668 1145.63382,776.632135 1152.6943,774.601036 C1159.75478,772.569938 1165.99306,769.450798 1171.40933,765.243523 C1176.82559,761.036248 1181.1537,755.644247 1184.39378,749.067358 C1187.63387,742.490468 1189.25389,734.704708 1189.25389,725.709845 C1189.25389,715.84451 1187.56133,707.67188 1184.17617,701.19171 C1180.791,694.711539 1176.26946,689.512973 1170.6114,685.595855 C1164.95334,681.678737 1158.42491,678.922288 1151.02591,677.326425 C1143.62691,675.730562 1135.86533,674.932642 1127.74093,674.932642 L1127.74093,674.932642 Z M1009.06736,674.932642 L974.683938,674.932642 L974.683938,777.647668 L1007.4715,777.647668 L1006.02073,728.611399 L1006.60104,728.611399 L1035.03627,777.647668 L1070.29016,777.647668 L1070.29016,674.932642 L1037.50259,674.932642 L1038.95337,727.015544 L1038.37306,727.015544 L1009.06736,674.932642 Z M292.963731,674.932642 L250.746114,674.932642 L250.746114,777.647668 L297.316062,777.647668 C302.345448,777.647668 307.253862,777.139901 312.041451,776.124352 C316.829039,775.108803 321.08461,773.416247 324.80829,771.046632 C328.53197,768.677018 331.530213,765.582057 333.803109,761.761658 C336.076004,757.941259 337.212435,753.22628 337.212435,747.61658 C337.212435,744.424855 336.680489,741.523329 335.61658,738.911917 C334.552672,736.300505 333.101909,734.003464 331.264249,732.020725 C329.426588,730.037987 327.347162,728.393789 325.025907,727.088083 C322.704652,725.782377 320.335073,724.839381 317.917098,724.259067 L317.917098,724.259067 L317.917098,723.823834 C322.46289,722.082893 326.113976,719.423161 328.870466,715.84456 C331.626957,712.265958 333.005181,707.720235 333.005181,702.207254 C333.005181,696.307397 331.699495,691.54406 329.088083,687.917098 C326.476671,684.290137 323.188275,681.533688 319.222798,679.647668 C315.25732,677.761649 310.929212,676.504321 306.238342,675.875648 C301.547472,675.246974 297.122646,674.932642 292.963731,674.932642 L292.963731,674.932642 Z M695.554404,674.932642 L662.041451,674.932642 L662.041451,777.647668 L695.699482,777.647668 L695.699482,736.735751 L695.989637,736.735751 L723.409326,777.647668 L765.772021,777.647668 L725.295337,721.937824 L763.88601,674.932642 L723.264249,674.932642 L695.84456,712.797927 L695.554404,712.797927 L695.554404,674.932642 Z M602.704663,674.932642 L558.455959,674.932642 L558.455959,777.647668 L591.823834,777.647668 L591.823834,740.943005 L592.839378,740.943005 L612.569948,777.647668 L652.321244,777.647668 L626.207254,736.010363 C632.010392,733.398951 636.459397,729.699506 639.554404,724.911917 C642.649411,720.124328 644.196891,714.587251 644.196891,708.300518 C644.196891,701.820348 642.987922,696.428346 640.569948,692.124352 C638.151974,687.820358 634.984476,684.386887 631.067358,681.823834 C627.150239,679.260782 622.701234,677.471508 617.720207,676.455959 C612.739181,675.440409 607.734049,674.932642 602.704663,674.932642 L602.704663,674.932642 Z M291.803109,736.590674 C292.867017,736.590674 294.003448,736.687391 295.212435,736.880829 C296.421422,737.074267 297.557853,737.436958 298.621762,737.968912 C299.68567,738.500866 300.580307,739.202068 301.305699,740.072539 C302.031092,740.94301 302.393782,742.055261 302.393782,743.409326 C302.393782,745.730582 301.547504,747.495676 299.854922,748.704663 C298.16234,749.91365 295.962017,750.518135 293.253886,750.518135 L293.253886,750.518135 L282.953368,750.518135 L282.953368,736.590674 Z M486.787565,703.658031 C489.689134,703.658031 492.373045,704.189977 494.839378,705.253886 C497.305712,706.317795 499.457676,707.792737 501.295337,709.678756 C503.132997,711.564776 504.55958,713.885997 505.57513,716.642487 C506.590679,719.398978 507.098446,722.4214 507.098446,725.709845 C507.098446,729.095008 506.590679,732.189969 505.57513,734.994819 C504.55958,737.799669 503.132997,740.217606 501.295337,742.248705 C499.457676,744.279803 497.305712,745.851462 494.839378,746.963731 C492.373045,748.075999 489.689134,748.632124 486.787565,748.632124 C483.885996,748.632124 481.177905,748.075999 478.663212,746.963731 C476.148519,745.851462 473.996555,744.279803 472.207254,742.248705 C470.417953,740.217606 469.015549,737.799669 468,734.994819 C466.984451,732.189969 466.476684,729.095008 466.476684,725.709845 C466.476684,722.4214 466.984451,719.398978 468,716.642487 C469.015549,713.885997 470.417953,711.564776 472.207254,709.678756 C473.996555,707.792737 476.148519,706.317795 478.663212,705.253886 C481.177905,704.189977 483.885996,703.658031 486.787565,703.658031 Z M1130.35233,704.238342 C1137.60625,704.238342 1143.4093,706.100154 1147.76166,709.823834 C1152.11401,713.547514 1154.29016,718.746081 1154.29016,725.419689 C1154.29016,733.447363 1152.11401,739.226235 1147.76166,742.756477 C1143.4093,746.286719 1137.17103,748.051813 1129.04663,748.051813 L1129.04663,748.051813 L1122.66321,748.051813 L1122.66321,704.238342 Z M599.803109,701.772021 C600.867017,701.772021 602.027628,701.844559 603.284974,701.989637 C604.542321,702.134716 605.702931,702.473227 606.766839,703.005181 C607.830748,703.537136 608.701206,704.335055 609.378238,705.398964 C610.055271,706.462872 610.393782,707.913635 610.393782,709.751295 C610.393782,711.588956 609.982733,713.063898 609.160622,714.176166 C608.338511,715.288434 607.322977,716.158892 606.11399,716.787565 C604.905003,717.416238 603.599316,717.827287 602.196891,718.020725 C600.794466,718.214163 599.512959,718.310881 598.352332,718.310881 L598.352332,718.310881 L591.533679,718.310881 L591.533679,701.772021 Z M291.512953,701.772021 C294.221084,701.772021 296.397228,702.255608 298.041451,703.222798 C299.685673,704.189988 300.507772,705.64075 300.507772,707.57513 C300.507772,709.896385 299.734032,711.613121 298.186528,712.725389 C296.639025,713.837657 294.656316,714.393782 292.238342,714.393782 L292.238342,714.393782 L282.953368,714.393782 L282.953368,701.772021 Z M505.067358,638.80829 C503.036259,638.80829 501.150268,639.19516 499.409326,639.968912 C497.668385,640.742664 496.120905,641.782377 494.766839,643.088083 C493.412774,644.393789 492.348881,645.91709 491.57513,647.658031 C490.801378,649.398972 490.414508,651.236605 490.414508,653.170984 C490.414508,657.233181 491.841091,660.618294 494.694301,663.326425 C497.54751,666.034556 501.005161,667.388601 505.067358,667.388601 C507.001737,667.388601 508.83937,667.02591 510.580311,666.300518 C512.321252,665.575126 513.844553,664.559592 515.150259,663.253886 C516.455965,661.94818 517.495678,660.449059 518.26943,658.756477 C519.043182,657.063895 519.430052,655.202083 519.430052,653.170984 C519.430052,651.236605 519.043182,649.398972 518.26943,647.658031 C517.495678,645.91709 516.455965,644.393789 515.150259,643.088083 C513.844553,641.782377 512.321252,640.742664 510.580311,639.968912 C508.83937,639.19516 507.001737,638.80829 505.067358,638.80829 Z M468.943005,638.80829 C466.911907,638.80829 465.025915,639.19516 463.284974,639.968912 C461.544033,640.742664 459.996553,641.782377 458.642487,643.088083 C457.288422,644.393789 456.224529,645.91709 455.450777,647.658031 C454.677025,649.398972 454.290155,651.236605 454.290155,653.170984 C454.290155,657.233181 455.716739,660.618294 458.569948,663.326425 C461.423158,666.034556 464.880809,667.388601 468.943005,667.388601 C470.877384,667.388601 472.715017,667.02591 474.455959,666.300518 C476.1969,665.575126 477.720201,664.559592 479.025907,663.253886 C480.331613,661.94818 481.371326,660.449059 482.145078,658.756477 C482.918829,657.063895 483.305699,655.202083 483.305699,653.170984 C483.305699,651.236605 482.918829,649.398972 482.145078,647.658031 C481.371326,645.91709 480.331613,644.393789 479.025907,643.088083 C477.720201,641.782377 476.1969,640.742664 474.455959,639.968912 C472.715017,639.19516 470.877384,638.80829 468.943005,638.80829 Z M1015.23316,512.549223 C1010.20377,512.549223 1005.12611,513.177887 1000,514.435233 C994.873895,515.69258 990.255634,517.747827 986.145078,520.601036 C982.034522,523.454246 978.673588,527.105332 976.062176,531.554404 C973.450764,536.003476 972.145078,541.419657 972.145078,547.803109 C972.145078,552.3489 972.870459,556.24178 974.321244,559.481865 C975.772028,562.721951 977.730558,565.502579 980.196891,567.823834 C982.663225,570.145089 985.492212,572.103619 988.683938,573.699482 C991.875664,575.295345 995.212418,576.673569 998.694301,577.834197 C1002.2729,578.994824 1005.24697,580.010358 1007.61658,580.880829 L1007.61658,580.880829 L1009.81693,581.727117 C1011.17099,582.275187 1012.29936,582.791017 1013.20207,583.274611 C1014.55614,584.000004 1015.49913,584.701206 1016.03109,585.378238 C1016.56304,586.055271 1016.82902,586.87737 1016.82902,587.84456 C1016.82902,589.68222 1016.0311,590.939548 1014.43523,591.61658 C1012.83937,592.293613 1011.07428,592.632124 1009.1399,592.632124 C1004.88426,592.632124 1000.74959,591.61659 996.735751,589.585492 C992.721914,587.554394 989.506057,585.233174 987.088083,582.621762 L987.088083,582.621762 L966.051813,605.544041 C968.663225,607.865297 971.61311,609.968902 974.901554,611.854922 C978.189999,613.740942 981.696009,615.38514 985.419689,616.787565 C989.143369,618.18999 993.01207,619.253882 997.025907,619.979275 C1001.03974,620.704667 1005.12606,621.067358 1009.28497,621.067358 C1014.5078,621.067358 1019.63383,620.317797 1024.66321,618.818653 C1029.6926,617.319509 1034.21414,615.046647 1038.22798,612 C1042.24182,608.953353 1045.48185,605.133011 1047.94819,600.53886 C1050.41452,595.944709 1051.64767,590.552708 1051.64767,584.362694 C1051.64767,579.043151 1050.53542,574.594146 1048.31088,571.015544 C1046.08634,567.436942 1043.25736,564.41452 1039.82383,561.948187 C1036.39031,559.481853 1032.64251,557.474965 1028.58031,555.927461 C1024.51811,554.379958 1020.64941,553.025913 1016.97409,551.865285 C1014.82693,551.168908 1013.03668,550.542175 1011.60331,549.985078 L1011.60331,549.985078 L1009.21244,548.963731 C1007.61657,548.189979 1006.81865,547.029369 1006.81865,545.481865 C1006.81865,543.837643 1007.59239,542.652853 1009.1399,541.927461 C1010.6874,541.202069 1012.71847,540.839378 1015.23316,540.839378 C1017.94129,540.839378 1020.98789,541.588939 1024.37306,543.088083 C1027.75822,544.587227 1030.61139,546.78755 1032.93264,549.689119 L1032.93264,549.689119 L1054.40415,527.782383 C1049.0846,522.849716 1042.91886,519.077733 1035.90674,516.466321 C1028.89461,513.854909 1022.00349,512.549223 1015.23316,512.549223 Z M645.139896,512.549223 C637.015503,512.549223 629.471537,513.80655 622.507772,516.321244 C615.544007,518.835937 609.523341,522.414485 604.445596,527.056995 C599.36785,531.699505 595.378253,537.3333 592.476684,543.958549 C589.575115,550.583798 588.124352,558.006867 588.124352,566.227979 C588.124352,574.449091 589.575115,581.944698 592.476684,588.715026 C595.378253,595.485353 599.36785,601.264225 604.445596,606.051813 C609.523341,610.839402 615.544007,614.538847 622.507772,617.150259 C629.471537,619.761671 637.015503,621.067358 645.139896,621.067358 C653.264289,621.067358 660.808255,619.761671 667.772021,617.150259 C674.735786,614.538847 680.780631,610.839402 685.906736,606.051813 C691.032841,601.264225 695.046618,595.485353 697.948187,588.715026 C700.849755,581.944698 702.300518,574.449091 702.300518,566.227979 C702.300518,558.006867 700.849755,550.583798 697.948187,543.958549 C695.046618,537.3333 691.032841,531.699505 685.906736,527.056995 C680.780631,522.414485 674.735786,518.835937 667.772021,516.321244 C660.808255,513.80655 653.264289,512.549223 645.139896,512.549223 Z M928.331606,515.450777 L891.626943,515.450777 L851.150259,618.165803 L887.709845,618.165803 L892.787565,603.07772 L925.430052,603.07772 L930.797927,618.165803 L968.373057,618.165803 L928.331606,515.450777 Z M761.927461,515.450777 L716.80829,515.450777 L716.80829,618.165803 L749.015544,618.165803 L747.419689,560.134715 L748.145078,560.134715 L767.005181,618.165803 L791.378238,618.165803 L810.528497,560.279793 L811.398964,560.42487 L810.38342,618.165803 L843.896373,618.165803 L843.896373,515.450777 L797.326425,515.450777 L781.222798,570.725389 L780.497409,570.725389 L761.927461,515.450777 Z M510.797927,515.450777 L476.414508,515.450777 L476.414508,618.165803 L510.943005,618.165803 L510.943005,579.139896 L539.088083,579.139896 L539.088083,618.165803 L573.61658,618.165803 L573.61658,515.450777 L538.943005,515.450777 L538.943005,550.26943 L510.797927,550.26943 L510.797927,515.450777 Z M465.823834,515.450777 L380.80829,515.450777 L380.80829,544.611399 L406.051813,544.611399 L406.051813,618.165803 L440.580311,618.165803 L440.580311,544.611399 L465.823834,544.611399 L465.823834,515.450777 Z M645.139896,544.176166 C648.041465,544.176166 650.725376,544.708112 653.19171,545.772021 C655.658043,546.835929 657.810008,548.310871 659.647668,550.196891 C661.485329,552.082911 662.911912,554.404131 663.927461,557.160622 C664.94301,559.917112 665.450777,562.939535 665.450777,566.227979 C665.450777,569.613143 664.94301,572.708103 663.927461,575.512953 C662.911912,578.317803 661.485329,580.735741 659.647668,582.766839 C657.810008,584.797938 655.658043,586.369597 653.19171,587.481865 C650.725376,588.594133 648.041465,589.150259 645.139896,589.150259 C642.238327,589.150259 639.530237,588.594133 637.015544,587.481865 C634.500851,586.369597 632.348886,584.797938 630.559585,582.766839 C628.770285,580.735741 627.367881,578.317803 626.352332,575.512953 C625.336782,572.708103 624.829016,569.613143 624.829016,566.227979 C624.829016,562.939535 625.336782,559.917112 626.352332,557.160622 C627.367881,554.404131 628.770285,552.082911 630.559585,550.196891 C632.348886,548.310871 634.500851,546.835929 637.015544,545.772021 C639.530237,544.708112 642.238327,544.176166 645.139896,544.176166 Z M909.471503,551.284974 L917.740933,576.673575 L901.056995,576.673575 L909.471503,551.284974 Z" id="Combined-Shape"></path>
        </g>
    </g>
</svg>