<?xml version="1.0" encoding="UTF-8"?>
<svg width="22px" height="32px" viewBox="0 0 22 32" version="1.1" xmlns="http://www.w3.org/2000/svg" xmlns:xlink="http://www.w3.org/1999/xlink">
    <!-- Generator: Sketch 58 (84663) - https://sketch.com -->
    <title>Shape</title>
    <desc>Created with Sketch.</desc>
    <g id="Page-1" stroke="none" stroke-width="1" fill="none" fill-rule="evenodd">
        <g id="Artboard" transform="translate(-294.000000, -224.000000)" fill="#131415" fill-rule="nonzero">
            <path d="M305.707107,224.292893 L315.707107,234.292893 C316.097631,234.683418 316.097631,235.316582 315.707107,235.707107 C315.316582,236.097631 314.683418,236.097631 314.292893,235.707107 L310,231.414 L306.415,235 L310.707107,239.292893 C311.067591,239.653377 311.09532,240.220608 310.790295,240.612899 L310.707107,240.707107 L306.415,245 L310,248.585 L314.292893,244.292893 C314.683418,243.902369 315.316582,243.902369 315.707107,244.292893 C316.067591,244.653377 316.09532,245.220608 315.790295,245.612899 L315.707107,245.707107 L305.707107,255.707107 C305.346623,256.067591 304.779392,256.09532 304.387101,255.790295 L304.292893,255.707107 L294.292893,245.707107 C293.902369,245.316582 293.902369,244.683418 294.292893,244.292893 C294.653377,243.932409 295.220608,243.90468 295.612899,244.209705 L295.707107,244.292893 L300,248.585 L303.585,245 L299.292893,240.707107 C298.902369,240.316582 298.902369,239.683418 299.292893,239.292893 L303.585,235 L300,231.415 L295.707107,235.707107 C295.316582,236.097631 294.683418,236.097631 294.292893,235.707107 C293.902369,235.316582 293.902369,234.683418 294.292893,234.292893 L304.292893,224.292893 C304.683418,223.902369 305.316582,223.902369 305.707107,224.292893 Z M305,246.415 L301.415,250 L305,253.585786 L308.585,250 L305,246.415 Z M305,236.415 L301.414214,240 L305,243.585 L308.585786,240 L305,236.415 Z M305,226.414214 L301.415,230 L305,233.585 L308.585,229.999 L305,226.414214 Z" id="Shape"></path>
        </g>
    </g>
</svg>