<?xml version="1.0" encoding="UTF-8"?>
<svg width="30px" height="30px" id="atwrapper" version="1.1" xmlns="http://www.w3.org/2000/svg" xmlns:xlink="http://www.w3.org/1999/xlink">
    <defs>        
         <path 
            d="M1.63212513,28.7990966 L7.41049685,28.7990966 L7.41049685,10.3428049 L1.63212513,10.3428049 L1.63212513,28.7990966 Z M4.47818881,7.84171862 C5.39812903,7.84171862 6.1887014,7.5111157 6.84990855,6.84990855 C7.5111157,6.1887014 7.84171862,5.41250221 7.84171862,4.52131099 C7.84171862,3.63011977 7.5111157,2.85392058 6.84990855,2.19271343 C6.1887014,1.53150628 5.39812903,1.20090336 4.47818881,1.20090336 C3.5582486,1.20090336 2.78204941,1.53150628 2.14959126,2.19271343 C1.5171331,2.85392058 1.20090336,3.63011977 1.20090336,4.52131099 C1.20090336,5.41250221 1.5171331,6.1887014 2.14959126,6.84990855 C2.78204941,7.5111157 3.5582486,7.84171862 4.47818881,7.84171862 Z M28.7990966,28.7990966 L23.1069693,28.7990966 L23.1069693,19.8296838 C23.1069693,18.3347821 22.9632282,17.2423532 22.6757475,16.5523984 C22.2732734,15.4599694 21.4108299,14.9137556 20.0884169,14.9137556 C18.7660039,14.9137556 17.817316,15.4024741 17.2423532,16.3799097 C16.8398791,17.1273612 16.6386427,18.2197888 16.6386427,19.6571951 L16.6386427,28.7990966 L10.9465154,28.7990966 L10.9465154,10.3428049 L16.466154,10.3428049 L16.466154,12.8438912 L16.5523984,12.8438912 C16.9548725,12.0389443 17.5873306,11.3777371 18.4497742,10.860271 C19.4847064,10.2278129 20.6633797,9.91158311 21.9857927,9.91158311 C24.63062,9.91158311 26.4992468,10.745279 27.5916757,12.4126694 C28.3966225,13.7350824 28.7990966,15.8336959 28.7990966,18.7085072 L28.7990966,28.7990966 Z"            id="at" 
            cursor= "pointer"
        >
        </path>
            <rect 
            id="Rectangle" 
            x="0" 
            y="0" 
            width="30" 
            height="30"
            cursor= "pointer"
            >
            </rect>
     </defs>
     <use
        id="rect"
        href="#Rectangle"
        fill-opacity="0"
    />
    <use
        id="atcolor"
        href="#at"
        fill="#323232"
        fill-opacity="0"
        stroke-width="1px"
        stroke="#323232"
    >
        <animate 
            attributeName="fill-opacity" 
            dur="300ms" 
            to="1" 
            begin="atwrapper.mouseenter"
            end="atwrapper.mouseleave"
            fill="freeze" 
        />
        <animate 
            attributeName="fill-opacity" 
            dur="300ms" 
            to="0" 
            end="atwrapper.mouseenter"
            begin="atwrapper.mouseleave"
            fill="freeze" 
        />
        <animate 
            attributeName="stroke-width" 
            dur="300ms" 
            to="0" 
            begin="atwrapper.mouseenter"
            end="atwrapper.mouseleave"
            fill="freeze" 
        />
        <animate 
            attributeName="stroke-width" 
            dur="300ms" 
            to="1" 
            end="atwrapper.mouseenter"
            begin="atwrapper.mouseleave"
            fill="freeze" 
        />
    </use>
 </svg>

