<?xml version="1.0" encoding="UTF-8"?>
<svg width="30px" height="30px" id="atwrapper" version="1.1" xmlns="http://www.w3.org/2000/svg" xmlns:xlink="http://www.w3.org/1999/xlink">
    <defs>        
         <path 
            d="M15.4626316,10.6435529 C14.8457864,10.6435529 14.306055,10.8234634 13.8434211,11.1832897 C13.3807873,11.543116 12.9888394,11.9993176 12.6675659,12.551908 C12.3462924,13.1044985 12.1021282,13.714909 11.935066,14.3831579 C11.7680037,15.0514068 11.6844739,15.6939442 11.6844739,16.3107894 C11.6844739,16.619212 11.7166007,16.946906 11.7808554,17.2938814 C11.8451102,17.6408568 11.9736176,17.9621255 12.1663817,18.2576972 C12.3591459,18.5532688 12.6097354,18.797433 12.918158,18.9901971 C13.2265806,19.1829612 13.6378045,19.2793419 14.1518422,19.2793419 C14.845793,19.2793419 15.4369274,19.1058568 15.9252631,18.7588814 C16.4135989,18.411906 16.811972,17.9749805 17.1203946,17.448092 C17.4288172,16.9212034 17.6537053,16.3493451 17.7950656,15.7325 C17.936426,15.1156548 18.0071051,14.5502219 18.0071051,14.0361843 C18.0071051,13.6249542 17.9685528,13.2201556 17.8914472,12.8217764 C17.8143416,12.4233973 17.6794087,12.0635763 17.4866446,11.7423028 C17.2938805,11.4210293 17.0304401,11.157589 16.6963157,10.9519739 C16.3621912,10.7463589 15.9509673,10.6435529 15.4626316,10.6435529 Z M27.5296045,24.67671 C26.0131935,26.2959285 24.2140888,27.4781973 22.1322364,28.2235519 C20.050384,28.9689064 17.8529061,29.3415781 15.5397368,29.3415781 C13.329375,29.3415781 11.318233,28.9881826 9.50625032,28.2813808 C7.69426768,27.5745791 6.14575255,26.5914969 4.86065848,25.3321047 C3.57556441,24.0727125 2.57963144,22.5627496 1.8728297,20.8021707 C1.16602797,19.0415918 0.812632397,17.120405 0.812632397,15.0385526 C0.812632397,12.9824021 1.19815484,11.0804914 1.96921128,9.33276348 C2.74026387,7.58503555 3.79402905,6.06864729 5.13052689,4.78355322 C6.46702472,3.49845915 8.02839059,2.48967544 9.81467135,1.75717182 C11.6009521,1.0246682 13.5092882,0.65842188 15.5397368,0.65842188 C17.2874647,0.65842188 18.9837635,0.915436839 20.6286839,1.42947447 C22.2736043,1.94350953 23.7321642,2.71455697 25.0044073,3.74263223 C26.2766504,4.77070748 27.2918595,6.05578228 28.050065,7.59789516 C28.8082705,9.14000805 29.1873676,10.9519635 29.1873676,13.0338159 C29.1873676,14.5759288 28.9753303,15.9381081 28.5512492,17.1203946 C28.1271682,18.3026812 27.5617353,19.2921927 26.8549335,20.0889471 C26.1481318,20.8857054 25.3385347,21.4832652 24.4261179,21.8816443 C23.5137011,22.2800235 22.5563204,22.4792101 21.553947,22.4792101 C20.5258717,22.4792101 19.7034239,22.2350459 19.0865787,21.7467101 C18.4697336,21.2583744 18.1613156,20.6415385 18.1613156,19.8961839 L17.9685525,19.8961839 C17.5830242,20.5130291 16.9918898,21.0977381 16.1951315,21.6503286 C15.3983732,22.202919 14.4217163,22.4792101 13.2651317,22.4792101 C11.5174037,22.4792101 10.1680752,21.9009264 9.2171056,20.7443418 C8.26613598,19.5877571 7.79065831,18.0842196 7.79065831,16.2336841 C7.79065831,15.1542051 7.97056878,14.087593 8.33039512,13.0338159 C8.69022146,11.9800388 9.20425138,11.0419342 9.8725003,10.219474 C10.5407492,9.39701375 11.3374956,8.73520024 12.2627633,8.23401355 C13.188031,7.73282686 14.2160909,7.48223728 15.3469737,7.48223728 C16.3236452,7.48223728 17.146093,7.68784924 17.8143419,8.09907935 C18.4825909,8.51030945 18.9195163,9.01149157 19.1251313,9.60263189 L19.163684,9.60263189 L19.472105,8.06052672 L22.903289,8.06052672 L21.3997365,15.3469737 C21.3483327,15.7068 21.2776536,16.1051732 21.187697,16.5421052 C21.0977404,16.9790372 21.0527628,17.3902611 21.0527628,17.7757893 C21.0527628,18.2127213 21.1362927,18.5789676 21.3033549,18.8745393 C21.4704171,19.1701109 21.7981112,19.3178945 22.2864469,19.3178945 C23.2888203,19.3178945 24.1176936,18.7781631 24.7730915,17.6986841 C25.4284895,16.619205 25.7561836,15.1670705 25.7561836,13.3422369 C25.7561836,11.8001241 25.4991686,10.4315194 24.985131,9.23638191 C24.4710934,8.04124443 23.7578769,7.03888609 22.8454601,6.22927682 C21.9330433,5.41966756 20.8471551,4.80925703 19.5877629,4.39802693 C18.3283707,3.98679682 16.9533407,3.78118486 15.4626316,3.78118486 C13.843413,3.78118486 12.3591516,4.07032669 11.0098029,4.64861902 C9.66045409,5.22691135 8.51031215,6.02365772 7.55934253,7.03888204 C6.60837292,8.05410635 5.86945492,9.24922591 5.34256635,10.6242766 C4.81567778,11.9993272 4.55223744,13.4835886 4.55223744,15.0771053 C4.55223744,16.7734294 4.82852853,18.3026684 5.38111898,19.6648682 C5.93370943,21.0270679 6.71117968,22.1900606 7.71355305,23.1538811 C8.71592643,24.1177017 9.91104599,24.8566197 11.2989476,25.3706573 C12.6868492,25.8846949 14.2160882,26.1417099 15.8867105,26.1417099 C17.9685629,26.1417099 19.7612422,25.8075904 21.2648023,25.1393415 C22.7683623,24.4710926 24.1498177,23.5458388 25.4092099,22.3635522 L27.5296045,24.67671 Z"
            id="at" 
            cursor= "pointer"
        >
        </path>
            <rect 
            id="Rectangle" 
            x="0" 
            y="0" 
            width="30" 
            height="30"
            cursor= "pointer"
            >
            </rect>
     </defs>
     <use
        id="rect"
        href="#Rectangle"
        fill-opacity="0"
    />
    <use
        id="atcolor"
        href="#at"
        fill="#323232"
        fill-opacity="0"
        stroke-width="1px"
        stroke="#323232"
    >
        <animate 
            attributeName="fill-opacity" 
            dur="300ms" 
            to="1" 
            begin="atwrapper.mouseenter"
            end="atwrapper.mouseleave"
            fill="freeze" 
        />
        <animate 
            attributeName="fill-opacity" 
            dur="300ms" 
            to="0" 
            end="atwrapper.mouseenter"
            begin="atwrapper.mouseleave"
            fill="freeze" 
        />
        <animate 
            attributeName="stroke-width" 
            dur="300ms" 
            to="0" 
            begin="atwrapper.mouseenter"
            end="atwrapper.mouseleave"
            fill="freeze" 
        />
        <animate 
            attributeName="stroke-width" 
            dur="300ms" 
            to="1" 
            end="atwrapper.mouseenter"
            begin="atwrapper.mouseleave"
            fill="freeze" 
        />
    </use>
 </svg>

